<svg xmlns="http://www.w3.org/2000/svg" xmlns:xlink="http://www.w3.org/1999/xlink" width="500" zoomAndPan="magnify" viewBox="0 0 375 374.999991" height="500" preserveAspectRatio="xMidYMid meet" version="1.0"><defs><clipPath id="2066d0a38c"><path d="M 37.5 58.0625 L 306.75 58.0625 L 306.75 316.8125 L 37.5 316.8125 Z M 37.5 58.0625 " clip-rule="nonzero"/></clipPath></defs><g clip-path="url(#2066d0a38c)"><path fill="#000000" d="M 135.441406 235.328125 L 261.933594 235.328125 C 262.503906 235.328125 263.0625 235.242188 263.609375 235.066406 C 264.152344 234.890625 264.65625 234.636719 265.121094 234.300781 C 265.582031 233.96875 265.984375 233.570312 266.320312 233.109375 C 266.660156 232.648438 266.917969 232.148438 267.097656 231.605469 L 306.21875 113.488281 C 306.351562 113.082031 306.4375 112.664062 306.472656 112.234375 C 306.507812 111.804688 306.496094 111.378906 306.429688 110.957031 C 306.363281 110.53125 306.246094 110.121094 306.085938 109.722656 C 305.921875 109.324219 305.714844 108.953125 305.460938 108.605469 C 305.210938 108.257812 304.917969 107.941406 304.59375 107.664062 C 304.265625 107.382812 303.910156 107.144531 303.527344 106.949219 C 303.144531 106.753906 302.746094 106.605469 302.328125 106.503906 C 301.90625 106.40625 301.484375 106.355469 301.054688 106.355469 L 101.632812 106.355469 L 94.839844 85.863281 C 94.558594 85.023438 94.132812 84.265625 93.554688 83.59375 C 92.976562 82.917969 92.296875 82.378906 91.507812 81.96875 L 47.566406 59.273438 C 47.171875 59.070312 46.757812 58.90625 46.328125 58.78125 C 45.898438 58.660156 45.464844 58.578125 45.019531 58.539062 C 44.574219 58.503906 44.128906 58.507812 43.683594 58.558594 C 43.242188 58.609375 42.808594 58.699219 42.382812 58.835938 C 41.957031 58.972656 41.546875 59.144531 41.15625 59.363281 C 40.765625 59.578125 40.402344 59.828125 40.058594 60.117188 C 39.71875 60.402344 39.410156 60.722656 39.128906 61.070312 C 38.851562 61.417969 38.609375 61.789062 38.40625 62.1875 C 38.199219 62.582031 38.035156 62.992188 37.910156 63.421875 C 37.789062 63.851562 37.707031 64.285156 37.667969 64.730469 C 37.632812 65.175781 37.636719 65.617188 37.6875 66.0625 C 37.738281 66.503906 37.828125 66.9375 37.964844 67.363281 C 38.101562 67.789062 38.277344 68.195312 38.492188 68.585938 C 38.707031 68.976562 38.960938 69.339844 39.246094 69.683594 C 39.535156 70.023438 39.851562 70.332031 40.203125 70.609375 C 40.550781 70.886719 40.921875 71.128906 41.320312 71.335938 L 82.804688 92.761719 C 84.441406 97.703125 122.21875 211.636719 123.710938 216.128906 C 121.980469 220.347656 104.289062 263.535156 104.289062 263.535156 C 104.1875 263.792969 104.097656 264.054688 104.023438 264.320312 C 103.949219 264.589844 103.894531 264.859375 103.855469 265.136719 C 103.816406 265.410156 103.792969 265.683594 103.785156 265.960938 C 103.78125 266.238281 103.792969 266.515625 103.820312 266.792969 C 103.847656 267.066406 103.894531 267.339844 103.953125 267.613281 C 104.015625 267.882812 104.09375 268.148438 104.1875 268.410156 C 104.28125 268.667969 104.390625 268.921875 104.515625 269.171875 C 104.644531 269.417969 104.78125 269.65625 104.9375 269.886719 C 105.09375 270.117188 105.261719 270.335938 105.441406 270.546875 C 105.625 270.757812 105.816406 270.953125 106.023438 271.140625 C 106.230469 271.328125 106.445312 271.5 106.675781 271.660156 C 106.902344 271.820312 107.136719 271.964844 107.382812 272.09375 C 107.628906 272.226562 107.878906 272.339844 108.136719 272.441406 C 108.398438 272.539062 108.660156 272.621094 108.929688 272.691406 C 109.199219 272.757812 109.472656 272.808594 109.75 272.84375 C 110.023438 272.875 110.300781 272.894531 110.578125 272.894531 L 121.714844 272.894531 C 121.070312 273.4375 120.453125 274.011719 119.863281 274.621094 C 119.273438 275.226562 118.71875 275.863281 118.195312 276.527344 C 117.671875 277.191406 117.183594 277.878906 116.730469 278.589844 C 116.273438 279.304688 115.859375 280.039062 115.480469 280.792969 C 115.101562 281.550781 114.761719 282.324219 114.464844 283.113281 C 114.164062 283.902344 113.90625 284.707031 113.6875 285.523438 C 113.46875 286.339844 113.292969 287.164062 113.160156 288 C 113.023438 288.832031 112.933594 289.671875 112.886719 290.515625 C 112.839844 291.359375 112.832031 292.203125 112.871094 293.046875 C 112.910156 293.890625 112.988281 294.730469 113.113281 295.566406 C 113.234375 296.402344 113.402344 297.230469 113.609375 298.046875 C 113.816406 298.867188 114.066406 299.671875 114.355469 300.46875 C 114.648438 301.261719 114.976562 302.039062 115.347656 302.796875 C 115.714844 303.558594 116.121094 304.296875 116.566406 305.015625 C 117.011719 305.734375 117.492188 306.429688 118.007812 307.097656 C 118.523438 307.769531 119.070312 308.410156 119.652344 309.023438 C 120.234375 309.640625 120.84375 310.222656 121.484375 310.773438 C 122.125 311.328125 122.792969 311.84375 123.484375 312.328125 C 124.179688 312.8125 124.894531 313.261719 125.632812 313.671875 C 126.375 314.085938 127.132812 314.457031 127.910156 314.792969 C 128.683594 315.125 129.476562 315.417969 130.285156 315.671875 C 131.089844 315.925781 131.910156 316.140625 132.738281 316.3125 C 133.566406 316.480469 134.402344 316.609375 135.242188 316.695312 C 136.085938 316.78125 136.929688 316.824219 137.777344 316.824219 C 138.621094 316.824219 139.464844 316.78125 140.308594 316.695312 C 141.148438 316.609375 141.984375 316.480469 142.8125 316.3125 C 143.640625 316.140625 144.460938 315.925781 145.265625 315.671875 C 146.074219 315.417969 146.867188 315.125 147.644531 314.792969 C 148.421875 314.457031 149.179688 314.085938 149.917969 313.671875 C 150.65625 313.261719 151.371094 312.8125 152.066406 312.328125 C 152.757812 311.84375 153.425781 311.328125 154.066406 310.773438 C 154.707031 310.222656 155.316406 309.640625 155.898438 309.023438 C 156.480469 308.410156 157.027344 307.769531 157.542969 307.097656 C 158.058594 306.429688 158.539062 305.734375 158.984375 305.015625 C 159.429688 304.296875 159.835938 303.558594 160.207031 302.796875 C 160.574219 302.039062 160.902344 301.261719 161.195312 300.46875 C 161.484375 299.671875 161.734375 298.867188 161.941406 298.046875 C 162.148438 297.230469 162.316406 296.402344 162.4375 295.566406 C 162.5625 294.730469 162.644531 293.890625 162.679688 293.046875 C 162.71875 292.203125 162.714844 291.359375 162.664062 290.515625 C 162.617188 289.671875 162.527344 288.832031 162.390625 288 C 162.257812 287.164062 162.082031 286.339844 161.863281 285.523438 C 161.648438 284.707031 161.386719 283.902344 161.089844 283.113281 C 160.789062 282.324219 160.449219 281.550781 160.070312 280.792969 C 159.691406 280.039062 159.277344 279.304688 158.824219 278.589844 C 158.367188 277.878906 157.878906 277.191406 157.355469 276.527344 C 156.832031 275.863281 156.277344 275.226562 155.6875 274.621094 C 155.101562 274.011719 154.480469 273.4375 153.835938 272.894531 L 220.695312 272.894531 C 220.050781 273.4375 219.433594 274.011719 218.84375 274.621094 C 218.253906 275.226562 217.699219 275.863281 217.175781 276.527344 C 216.652344 277.191406 216.164062 277.878906 215.710938 278.589844 C 215.257812 279.304688 214.839844 280.039062 214.460938 280.792969 C 214.082031 281.550781 213.746094 282.324219 213.445312 283.113281 C 213.144531 283.902344 212.886719 284.707031 212.667969 285.523438 C 212.449219 286.339844 212.273438 287.164062 212.140625 287.996094 C 212.007812 288.832031 211.917969 289.671875 211.867188 290.515625 C 211.820312 291.359375 211.816406 292.203125 211.851562 293.046875 C 211.890625 293.890625 211.972656 294.730469 212.09375 295.566406 C 212.21875 296.402344 212.382812 297.226562 212.59375 298.046875 C 212.800781 298.867188 213.050781 299.671875 213.339844 300.464844 C 213.628906 301.257812 213.960938 302.035156 214.328125 302.796875 C 214.699219 303.554688 215.105469 304.296875 215.550781 305.015625 C 215.996094 305.734375 216.472656 306.425781 216.988281 307.097656 C 217.503906 307.765625 218.054688 308.410156 218.632812 309.023438 C 219.214844 309.636719 219.828125 310.21875 220.46875 310.773438 C 221.105469 311.324219 221.773438 311.84375 222.46875 312.324219 C 223.160156 312.808594 223.878906 313.257812 224.617188 313.667969 C 225.355469 314.082031 226.113281 314.453125 226.890625 314.789062 C 227.667969 315.121094 228.457031 315.417969 229.265625 315.671875 C 230.074219 315.925781 230.890625 316.136719 231.71875 316.308594 C 232.546875 316.476562 233.382812 316.605469 234.226562 316.691406 C 235.066406 316.777344 235.910156 316.820312 236.757812 316.820312 C 237.601562 316.820312 238.445312 316.777344 239.289062 316.691406 C 240.128906 316.605469 240.964844 316.476562 241.792969 316.308594 C 242.621094 316.136719 243.441406 315.925781 244.246094 315.671875 C 245.054688 315.417969 245.847656 315.121094 246.621094 314.789062 C 247.398438 314.453125 248.15625 314.082031 248.898438 313.667969 C 249.636719 313.257812 250.351562 312.808594 251.046875 312.324219 C 251.738281 311.84375 252.40625 311.324219 253.046875 310.773438 C 253.6875 310.21875 254.296875 309.636719 254.878906 309.023438 C 255.460938 308.410156 256.007812 307.765625 256.523438 307.097656 C 257.039062 306.425781 257.519531 305.734375 257.964844 305.015625 C 258.40625 304.296875 258.816406 303.554688 259.183594 302.796875 C 259.554688 302.035156 259.882812 301.257812 260.171875 300.464844 C 260.464844 299.671875 260.710938 298.867188 260.921875 298.046875 C 261.128906 297.226562 261.292969 296.402344 261.417969 295.566406 C 261.542969 294.730469 261.621094 293.890625 261.660156 293.046875 C 261.699219 292.203125 261.691406 291.359375 261.644531 290.515625 C 261.597656 289.671875 261.503906 288.832031 261.371094 287.996094 C 261.238281 287.164062 261.0625 286.339844 260.84375 285.523438 C 260.625 284.707031 260.367188 283.902344 260.066406 283.113281 C 259.769531 282.324219 259.429688 281.550781 259.050781 280.792969 C 258.671875 280.039062 258.257812 279.304688 257.800781 278.589844 C 257.347656 277.878906 256.859375 277.191406 256.335938 276.527344 C 255.8125 275.863281 255.257812 275.226562 254.667969 274.621094 C 254.082031 274.011719 253.460938 273.4375 252.816406 272.894531 L 266.5 272.894531 C 266.941406 272.886719 267.378906 272.839844 267.8125 272.746094 C 268.246094 272.65625 268.664062 272.523438 269.070312 272.347656 C 269.476562 272.175781 269.863281 271.964844 270.230469 271.714844 C 270.59375 271.46875 270.933594 271.183594 271.242188 270.871094 C 271.554688 270.554688 271.832031 270.214844 272.074219 269.847656 C 272.320312 269.476562 272.523438 269.089844 272.691406 268.679688 C 272.859375 268.273438 272.988281 267.851562 273.074219 267.417969 C 273.160156 266.984375 273.199219 266.546875 273.199219 266.105469 C 273.199219 265.664062 273.160156 265.226562 273.074219 264.792969 C 272.988281 264.359375 272.859375 263.9375 272.691406 263.53125 C 272.523438 263.121094 272.320312 262.730469 272.074219 262.363281 C 271.832031 261.996094 271.554688 261.652344 271.242188 261.339844 C 270.933594 261.023438 270.59375 260.742188 270.230469 260.492188 C 269.863281 260.246094 269.476562 260.035156 269.070312 259.859375 C 268.664062 259.6875 268.246094 259.554688 267.8125 259.464844 C 267.378906 259.371094 266.941406 259.324219 266.5 259.316406 L 120.707031 259.316406 C 123.34375 252.878906 127.734375 242.164062 131.328125 233.390625 C 131.839844 234 132.453125 234.476562 133.171875 234.8125 C 133.890625 235.152344 134.644531 235.324219 135.441406 235.328125 Z M 137.777344 305.929688 C 136.855469 305.929688 135.941406 305.839844 135.035156 305.660156 C 134.128906 305.480469 133.253906 305.214844 132.398438 304.859375 C 131.546875 304.507812 130.738281 304.078125 129.96875 303.566406 C 129.203125 303.054688 128.492188 302.472656 127.839844 301.820312 C 127.1875 301.167969 126.605469 300.460938 126.09375 299.695312 C 125.582031 298.929688 125.148438 298.121094 124.792969 297.269531 C 124.441406 296.417969 124.175781 295.539062 123.996094 294.636719 C 123.8125 293.734375 123.722656 292.820312 123.722656 291.898438 C 123.722656 290.980469 123.8125 290.066406 123.992188 289.164062 C 124.175781 288.257812 124.441406 287.382812 124.792969 286.53125 C 125.148438 285.679688 125.578125 284.871094 126.09375 284.105469 C 126.605469 283.339844 127.1875 282.628906 127.839844 281.980469 C 128.492188 281.328125 129.203125 280.746094 129.96875 280.234375 C 130.734375 279.722656 131.546875 279.289062 132.398438 278.9375 C 133.25 278.585938 134.128906 278.320312 135.035156 278.140625 C 135.9375 277.960938 136.851562 277.871094 137.773438 277.871094 C 138.699219 277.871094 139.613281 277.960938 140.515625 278.140625 C 141.421875 278.320312 142.300781 278.585938 143.152344 278.9375 C 144.003906 279.289062 144.816406 279.722656 145.582031 280.234375 C 146.347656 280.746094 147.058594 281.328125 147.710938 281.976562 C 148.363281 282.628906 148.945312 283.339844 149.457031 284.105469 C 149.972656 284.871094 150.402344 285.679688 150.757812 286.53125 C 151.109375 287.382812 151.375 288.257812 151.558594 289.160156 C 151.738281 290.066406 151.828125 290.976562 151.828125 291.898438 C 151.824219 292.820312 151.734375 293.730469 151.554688 294.632812 C 151.375 295.539062 151.105469 296.414062 150.753906 297.265625 C 150.398438 298.117188 149.96875 298.921875 149.453125 299.6875 C 148.941406 300.453125 148.359375 301.164062 147.707031 301.8125 C 147.054688 302.464844 146.347656 303.046875 145.578125 303.558594 C 144.8125 304.070312 144.003906 304.503906 143.152344 304.855469 C 142.300781 305.210938 141.421875 305.476562 140.515625 305.65625 C 139.613281 305.835938 138.699219 305.925781 137.777344 305.929688 Z M 236.757812 305.929688 C 235.835938 305.929688 234.921875 305.839844 234.015625 305.660156 C 233.113281 305.480469 232.234375 305.214844 231.378906 304.863281 C 230.527344 304.507812 229.71875 304.078125 228.949219 303.566406 C 228.183594 303.054688 227.472656 302.472656 226.820312 301.820312 C 226.167969 301.167969 225.585938 300.460938 225.074219 299.695312 C 224.558594 298.929688 224.128906 298.121094 223.773438 297.269531 C 223.421875 296.417969 223.152344 295.542969 222.972656 294.636719 C 222.792969 293.734375 222.703125 292.820312 222.703125 291.902344 C 222.703125 290.980469 222.792969 290.066406 222.972656 289.164062 C 223.152344 288.261719 223.417969 287.382812 223.773438 286.53125 C 224.125 285.679688 224.558594 284.871094 225.070312 284.105469 C 225.582031 283.339844 226.164062 282.632812 226.816406 281.980469 C 227.46875 281.328125 228.179688 280.746094 228.949219 280.234375 C 229.714844 279.722656 230.523438 279.289062 231.375 278.9375 C 232.230469 278.585938 233.109375 278.320312 234.011719 278.140625 C 234.917969 277.960938 235.832031 277.871094 236.753906 277.871094 C 237.675781 277.871094 238.589844 277.960938 239.496094 278.140625 C 240.402344 278.320312 241.277344 278.585938 242.132812 278.9375 C 242.984375 279.289062 243.792969 279.722656 244.5625 280.234375 C 245.328125 280.746094 246.039062 281.328125 246.691406 281.976562 C 247.34375 282.628906 247.925781 283.339844 248.4375 284.105469 C 248.949219 284.871094 249.382812 285.679688 249.738281 286.53125 C 250.089844 287.382812 250.355469 288.257812 250.535156 289.160156 C 250.714844 290.066406 250.804688 290.976562 250.804688 291.898438 C 250.804688 292.820312 250.714844 293.730469 250.535156 294.632812 C 250.351562 295.539062 250.085938 296.414062 249.734375 297.265625 C 249.378906 298.117188 248.945312 298.921875 248.433594 299.6875 C 247.921875 300.453125 247.339844 301.164062 246.6875 301.8125 C 246.035156 302.464844 245.328125 303.046875 244.558594 303.558594 C 243.792969 304.070312 242.984375 304.503906 242.132812 304.855469 C 241.28125 305.210938 240.402344 305.476562 239.496094 305.65625 C 238.59375 305.835938 237.679688 305.925781 236.757812 305.929688 Z M 223.441406 155.679688 L 223.441406 186.453125 L 175.394531 186.453125 L 175.394531 155.679688 Z M 175.394531 144.820312 L 175.394531 117.214844 L 223.441406 117.214844 L 223.441406 144.820312 Z M 234.316406 155.679688 L 280.785156 155.679688 C 277.460938 165.722656 273.894531 176.480469 270.59375 186.453125 L 234.316406 186.453125 Z M 223.441406 197.316406 L 223.441406 224.46875 L 175.394531 224.46875 L 175.394531 197.316406 Z M 164.519531 186.453125 L 128.191406 186.453125 L 117.988281 155.679688 L 164.519531 155.679688 Z M 137.386719 218.480469 C 137.621094 217.800781 137.742188 217.097656 137.753906 216.375 C 137.753906 215.644531 137.640625 214.929688 137.410156 214.238281 L 131.792969 197.316406 L 164.523438 197.316406 L 164.523438 224.46875 L 139.367188 224.46875 C 139.101562 223.648438 138.40625 221.550781 137.386719 218.480469 Z M 258.007812 224.476562 L 234.316406 224.476562 L 234.316406 197.316406 L 266.996094 197.316406 C 262.324219 211.425781 258.710938 222.328125 258.003906 224.46875 Z M 284.382812 144.820312 L 234.316406 144.820312 L 234.316406 117.214844 L 293.527344 117.214844 C 292.304688 120.894531 288.773438 131.566406 284.382812 144.820312 Z M 164.519531 117.214844 L 164.519531 144.820312 L 114.386719 144.820312 L 105.242188 117.214844 Z M 164.519531 117.214844 " fill-opacity="1" fill-rule="nonzero"/></g></svg>