<svg xmlns="http://www.w3.org/2000/svg" xmlns:xlink="http://www.w3.org/1999/xlink" width="500" zoomAndPan="magnify" viewBox="0 0 375 374.999991" height="500" preserveAspectRatio="xMidYMid meet" version="1.0"><defs><clipPath id="aa6e3b734d"><path d="M 24.796875 24.796875 L 350.296875 24.796875 L 350.296875 350.296875 L 24.796875 350.296875 Z M 24.796875 24.796875 " clip-rule="nonzero"/></clipPath></defs><g clip-path="url(#aa6e3b734d)"><path fill="#000000" d="M 187.546875 350.296875 C 97.644531 350.296875 24.796875 277.453125 24.796875 187.546875 C 24.796875 97.644531 97.644531 24.796875 187.546875 24.796875 C 277.453125 24.796875 350.296875 97.644531 350.296875 187.546875 C 350.296875 277.453125 277.453125 350.296875 187.546875 350.296875 " fill-opacity="1" fill-rule="nonzero"/></g><path fill="#ffffff" d="M 206.726562 187.546875 L 251.863281 142.410156 C 257.164062 137.113281 257.164062 128.53125 251.863281 123.234375 C 246.566406 117.933594 237.984375 117.933594 232.6875 123.234375 L 187.546875 168.371094 L 142.410156 123.234375 C 137.113281 117.933594 128.53125 117.933594 123.234375 123.234375 C 117.933594 128.53125 117.933594 137.113281 123.234375 142.410156 L 168.371094 187.546875 L 123.234375 232.6875 C 117.933594 237.984375 117.933594 246.566406 123.234375 251.863281 C 125.882812 254.511719 129.378906 255.835938 132.820312 255.835938 C 136.316406 255.835938 139.761719 254.511719 142.410156 251.863281 L 187.546875 206.726562 L 232.6875 251.863281 C 235.335938 254.511719 238.777344 255.835938 242.273438 255.835938 C 245.71875 255.835938 249.214844 254.511719 251.863281 251.863281 C 257.164062 246.566406 257.164062 237.984375 251.863281 232.6875 L 206.726562 187.546875 " fill-opacity="1" fill-rule="nonzero"/></svg>