<svg xmlns="http://www.w3.org/2000/svg" xmlns:xlink="http://www.w3.org/1999/xlink" width="500" zoomAndPan="magnify" viewBox="0 0 375 374.999991" height="500" preserveAspectRatio="xMidYMid meet" version="1.0"><defs><g/><clipPath id="a8356b36bd"><path d="M 152 189.488281 L 161 189.488281 L 161 196 L 152 196 Z M 152 189.488281 " clip-rule="nonzero"/></clipPath><clipPath id="d7dc65076c"><path d="M 151 189.488281 L 162 189.488281 L 162 197 L 151 197 Z M 151 189.488281 " clip-rule="nonzero"/></clipPath><clipPath id="3cbb7994e6"><path d="M 217 231 L 244.574219 231 L 244.574219 248 L 217 248 Z M 217 231 " clip-rule="nonzero"/></clipPath><clipPath id="80c2f417d1"><path d="M 121 238 L 244 238 L 244 261.488281 L 121 261.488281 Z M 121 238 " clip-rule="nonzero"/></clipPath><clipPath id="3cbecb2775"><path d="M 204 239 L 218 239 L 218 261.488281 L 204 261.488281 Z M 204 239 " clip-rule="nonzero"/></clipPath><clipPath id="74319b874b"><path d="M 120.824219 244 L 129 244 L 129 261.488281 L 120.824219 261.488281 Z M 120.824219 244 " clip-rule="nonzero"/></clipPath><clipPath id="1f50d93913"><path d="M 120.824219 246 L 219 246 L 219 261.488281 L 120.824219 261.488281 Z M 120.824219 246 " clip-rule="nonzero"/></clipPath><clipPath id="789d1bf19c"><path d="M 204 210 L 214 210 L 214 217.171875 L 204 217.171875 Z M 204 210 " clip-rule="nonzero"/></clipPath><clipPath id="d9691645f5"><path d="M 204 210 L 215 210 L 215 217.171875 L 204 217.171875 Z M 204 210 " clip-rule="nonzero"/></clipPath><clipPath id="a5e8333ffc"><path d="M 121 145.242188 L 244 145.242188 L 244 169 L 121 169 Z M 121 145.242188 " clip-rule="nonzero"/></clipPath><clipPath id="8e700fbf2c"><path d="M 121 145.242188 L 244.539062 145.242188 L 244.539062 169 L 121 169 Z M 121 145.242188 " clip-rule="nonzero"/></clipPath><clipPath id="d3a30cd911"><path d="M 147 145.242188 L 161 145.242188 L 161 167 L 147 167 Z M 147 145.242188 " clip-rule="nonzero"/></clipPath><clipPath id="a8822975a9"><path d="M 236 145.242188 L 244.539062 145.242188 L 244.539062 163 L 236 163 Z M 236 145.242188 " clip-rule="nonzero"/></clipPath><clipPath id="8cb7e4ee43"><path d="M 146 145.242188 L 244.539062 145.242188 L 244.539062 160 L 146 160 Z M 146 145.242188 " clip-rule="nonzero"/></clipPath></defs><g clip-path="url(#a8356b36bd)"><path fill="#000000" d="M 152.128906 195.816406 C 152.050781 194.316406 151.871094 193.726562 152.351562 192.714844 C 153.191406 190.949219 155.042969 189.574219 155.828125 189.710938 C 157.0625 189.921875 156.957031 190.726562 157.921875 191.746094 C 158.886719 192.761719 160.441406 195.226562 160.441406 195.226562 Z M 152.128906 195.816406 " fill-opacity="1" fill-rule="nonzero"/></g><g clip-path="url(#d7dc65076c)"><path stroke-linecap="butt" transform="matrix(0.15022, 0, 0, 0.150031, 118.918055, 156.347539)" fill="none" stroke-linejoin="miter" d="M 221.080764 263.070982 C 220.560695 253.073065 219.364536 249.141592 222.562961 242.398205 C 228.153702 230.629824 240.479338 221.465066 245.706032 222.376335 C 253.923122 223.782292 253.221029 229.145758 259.643881 235.941217 C 266.066734 242.71064 276.416107 259.13951 276.416107 259.13951 Z M 221.080764 263.070982 " stroke="#000000" stroke-width="1" stroke-opacity="1" stroke-miterlimit="4"/></g><path stroke-linecap="butt" transform="matrix(0.15022, 0, 0, 0.150031, 118.918055, 156.347539)" fill-opacity="1" fill="#000000" fill-rule="nonzero" stroke-linejoin="miter" d="M 57.15501 243.778126 C 57.15501 243.778126 63.577862 318.788542 49.275964 418.090772 C 36.066211 510.024746 29.279311 505.234077 27.147028 536.659822 C 24.988741 568.085567 29.279311 619.507147 29.279311 619.507147 C 29.279311 619.507147 350.707966 626.641077 439.275719 621.642119 C 527.843473 616.64316 740.707721 580.218456 740.707721 580.218456 C 740.707721 580.218456 739.277531 553.088691 709.997646 538.065779 C 680.71776 523.068903 623.562175 518.069945 589.99172 505.937055 C 556.421265 493.804166 455.7099 469.512352 403.572982 403.06786 C 351.436063 336.649405 304.759869 258.51464 282.136866 248.074106 C 261.230092 250.912057 217.154243 253.80208 161.428848 252.370086 C 105.729456 250.938093 57.129007 243.778126 57.129007 243.778126 Z M 57.15501 243.778126 " stroke="#000000" stroke-width="1" stroke-opacity="1" stroke-miterlimit="4"/><path stroke-linecap="butt" transform="matrix(0.15022, 0, 0, 0.150031, 119.561898, 156.454677)" fill-opacity="1" fill="#ffffff" fill-rule="nonzero" stroke-linejoin="miter" d="M 236.42738 407.717219 C 236.42738 447.76096 202.856925 480.228155 161.433428 480.228155 C 120.009931 480.228155 86.439476 447.76096 86.439476 407.717219 C 86.439476 367.673477 120.009931 335.232319 161.433428 335.232319 C 202.856925 335.232319 236.42738 367.673477 236.42738 407.717219 Z M 236.42738 407.717219 " stroke="#d8d8d8" stroke-width="1" stroke-opacity="1" stroke-miterlimit="4"/><path stroke-linecap="butt" transform="matrix(0.0232646, 0, 0, 0.0225587, 160.20764, 233.418604)" fill="none" stroke-linejoin="miter" d="M 236.384106 407.762109 C 236.384106 447.761918 202.803099 480.142716 161.49846 480.142716 C 120.025917 480.142716 86.44491 447.761918 86.44491 407.762109 C 86.44491 367.7623 120.025917 335.208342 161.49846 335.208342 C 202.803099 335.208342 236.384106 367.7623 236.384106 407.762109 Z M 236.384106 407.762109 " stroke="#ffffff" stroke-width="48.764999" stroke-opacity="1" stroke-miterlimit="4"/><path stroke-linecap="butt" transform="matrix(0.0232646, 0, 0, 0.0225587, 172.46113, 233.237065)" fill="none" stroke-linejoin="miter" d="M 236.402015 407.670997 C 236.402015 447.843966 202.821008 480.224764 161.348465 480.224764 C 120.043826 480.224764 86.462819 447.843966 86.462819 407.670997 C 86.462819 367.671188 120.043826 335.29039 161.348465 335.29039 C 202.821008 335.29039 236.402015 367.671188 236.402015 407.670997 Z M 236.402015 407.670997 " stroke="#ffffff" stroke-width="48.764999" stroke-opacity="1" stroke-miterlimit="4"/><path stroke-linecap="butt" transform="matrix(0.022479, 0.0134608, -0.0103427, 0.0185799, 162.856033, 190.623693)" fill="none" stroke-linejoin="miter" d="M 236.42895 407.785181 C 236.398386 447.753111 202.865848 480.246271 161.472845 480.170348 C 119.949512 480.188847 86.415922 447.718308 86.446486 407.750378 C 86.404501 367.624769 120.009588 335.289289 161.460371 335.11311 C 202.853375 335.189032 236.386965 367.659572 236.42895 407.785181 Z M 236.42895 407.785181 " stroke="#ffffff" stroke-width="48.766998" stroke-opacity="1" stroke-miterlimit="4"/><path stroke-linecap="butt" transform="matrix(0.022479, 0.0134608, -0.0103427, 0.0185799, 167.684115, 199.357005)" fill="none" stroke-linejoin="miter" d="M 236.377586 407.669396 C 236.419571 447.795006 202.887033 480.288166 161.49403 480.212243 C 119.970697 480.230742 86.437107 447.760203 86.467672 407.792273 C 86.425686 367.666664 119.958224 335.173504 161.481557 335.155005 C 202.87456 335.230927 236.40815 367.701467 236.377586 407.669396 Z M 236.377586 407.669396 " stroke="#ffffff" stroke-width="48.766998" stroke-opacity="1" stroke-miterlimit="4"/><path stroke-linecap="butt" transform="matrix(0.022479, 0.0134608, -0.0103427, 0.0185799, 173.048489, 207.287653)" fill="none" stroke-linejoin="miter" d="M 236.39583 407.814708 C 236.365266 447.782638 202.832729 480.275798 161.439726 480.199875 C 120.046722 480.123953 86.382803 447.747835 86.413367 407.779906 C 86.371382 367.654296 119.976468 335.318816 161.427252 335.142637 C 202.820255 335.218559 236.353845 367.689099 236.39583 407.814708 Z M 236.39583 407.814708 " stroke="#ffffff" stroke-width="48.766998" stroke-opacity="1" stroke-miterlimit="4"/><path stroke-linecap="butt" transform="matrix(0.0223949, 0.0138359, -0.0103036, 0.019096, 180.128371, 214.036071)" fill="none" stroke-linejoin="miter" d="M 236.457128 407.734344 C 236.425178 447.851014 202.810729 480.183962 161.501528 480.248726 C 119.990925 480.254855 86.370752 447.74682 86.473288 407.783567 C 86.505239 367.666897 120.049103 335.180532 161.428888 335.269185 C 202.868906 335.109639 236.358261 367.712458 236.457128 407.734344 Z M 236.457128 407.734344 " stroke="#ffffff" stroke-width="48.766998" stroke-opacity="1" stroke-miterlimit="4"/><path stroke-linecap="butt" transform="matrix(0.0244604, 0.00974153, -0.00682752, 0.0205933, 186.575851, 219.113114)" fill="none" stroke-linejoin="miter" d="M 236.389548 407.734255 C 236.383221 447.760905 202.786511 480.156269 161.431957 480.181175 C 120.077403 480.206081 86.426097 447.754805 86.432425 407.728155 C 86.438752 367.701506 119.988692 335.13858 161.390016 335.281235 C 202.88564 335.189597 236.395876 367.707605 236.389548 407.734255 Z M 236.389548 407.734255 " stroke="#ffffff" stroke-width="48.766998" stroke-opacity="1" stroke-miterlimit="4"/><path stroke-linecap="butt" transform="matrix(0.0238971, 0.00791565, -0.00666979, 0.016733, 195.57254, 224.550249)" fill="none" stroke-linejoin="miter" d="M 236.430642 407.604229 C 236.367021 447.78705 202.910461 480.188568 161.399008 480.216365 C 120.031951 480.175854 86.458268 447.734769 86.435049 407.826474 C 86.49867 367.643654 119.95523 335.242136 161.466683 335.214339 C 202.83374 335.25485 236.407423 367.695935 236.430642 407.604229 Z M 236.430642 407.604229 " stroke="#ffffff" stroke-width="48.766998" stroke-opacity="1" stroke-miterlimit="4"/><path stroke-linecap="butt" transform="matrix(0.0238971, 0.00791565, -0.00666979, 0.016733, 204.585766, 226.940258)" fill="none" stroke-linejoin="miter" d="M 236.384015 407.663122 C 236.46479 447.777635 202.863834 480.24746 161.496777 480.206949 C 119.985324 480.234746 86.41164 447.793661 86.475261 407.61084 C 86.452042 367.702546 120.052999 335.232721 161.420056 335.273232 C 202.931509 335.245435 236.505192 367.686519 236.384015 407.663122 Z M 236.384015 407.663122 " stroke="#ffffff" stroke-width="48.766998" stroke-opacity="1" stroke-miterlimit="4"/><path stroke-linecap="butt" transform="matrix(0.0249111, 0.00332319, -0.00365937, 0.0160563, 212.508389, 230.000889)" fill="none" stroke-linejoin="miter" d="M 236.426064 407.655257 C 236.365926 447.809547 202.875491 480.285894 161.451091 480.10131 C 120.061375 480.152831 86.441366 447.699195 86.384006 407.812507 C 86.444144 367.658217 119.934579 335.18187 161.476476 335.098852 C 202.900876 335.283436 236.368704 367.768569 236.426064 407.655257 Z M 236.426064 407.655257 " stroke="#ffffff" stroke-width="48.766998" stroke-opacity="1" stroke-miterlimit="4"/><path fill="#ffffff" d="M 240.070312 239.78125 C 239.105469 237.960938 237.761719 236.523438 235.875 236.058594 C 231.96875 235.097656 224.449219 235.765625 222.140625 236.03125 C 219.835938 236.300781 226.941406 241.84375 229.761719 243.453125 C 231.730469 242.640625 238.851562 241.394531 240.070312 239.78125 Z M 240.070312 239.78125 " fill-opacity="1" fill-rule="nonzero"/><g clip-path="url(#3cbb7994e6)"><path stroke-linecap="butt" transform="matrix(0.15022, 0, 0, 0.150031, 118.918055, 156.347539)" fill="none" stroke-linejoin="miter" d="M 806.496452 556.108895 C 800.073599 543.976006 791.128412 534.394669 778.568745 531.296356 C 752.565295 524.89144 702.508652 529.343638 687.140612 531.114102 C 671.798576 532.910603 719.098853 569.856032 737.873345 580.582964 C 750.979084 575.167425 798.383375 566.861864 806.496452 556.108895 Z M 806.496452 556.108895 " stroke="#000000" stroke-width="5" stroke-opacity="1" stroke-miterlimit="4"/></g><g clip-path="url(#80c2f417d1)"><path stroke-linecap="butt" transform="matrix(0.15022, 0, 0, 0.150031, 118.918055, 156.347539)" fill-opacity="1" fill="#ffffff" fill-rule="nonzero" stroke-linejoin="round" d="M 21.088224 602.635661 C 21.088224 602.635661 222.432943 610.706897 365.529933 608.67607 C 507.378757 606.671279 731.346479 583.707313 807.146538 548.089733 C 809.460845 554.911228 817.703939 561.394253 820.590322 569.335307 C 823.970771 578.73439 833.514037 616.486943 827.819281 630.78084 C 822.098522 645.074737 728.56411 668.168885 657.13263 679.598795 C 585.701151 691.028706 489.904438 691.106815 414.208393 691.106815 C 338.486344 691.106815 174.196542 700.01121 111.346202 697.980383 C 48.365844 695.975592 29.435332 690.664198 17.239713 680.848535 C 15.315458 663.14389 21.088224 602.635661 21.088224 602.635661 Z M 21.088224 602.635661 " stroke="#000000" stroke-width="5" stroke-opacity="1" stroke-miterlimit="4"/></g><g clip-path="url(#3cbecb2775)"><path stroke-linecap="butt" transform="matrix(0.15022, 0, 0, 0.150031, 118.918055, 156.347539)" fill="none" stroke-linejoin="miter" d="M 605.697805 590.580881 C 613.212802 620.93914 621.793941 661.998295 623.926224 684.858116 " stroke="#000000" stroke-width="6" stroke-opacity="1" stroke-miterlimit="4"/></g><g clip-path="url(#74319b874b)"><path stroke-linecap="butt" transform="matrix(0.15022, 0, 0, 0.150031, 118.918055, 156.347539)" fill="none" stroke-linejoin="miter" d="M 20.724176 614.508188 L 35.364118 617.007667 L 34.636022 689.154096 " stroke="#000000" stroke-width="5" stroke-opacity="1" stroke-miterlimit="4"/></g><g clip-path="url(#1f50d93913)"><path stroke-linecap="butt" transform="matrix(0.15022, 0, 0, 0.150031, 118.918055, 156.347539)" fill="none" stroke-linejoin="miter" d="M 34.636022 660.592338 C 34.636022 660.592338 51.018196 666.997254 77.281681 667.491942 C 103.545166 668.012667 235.356658 664.497774 275.766021 664.471738 C 311.62478 664.445702 440.419871 662.571092 488.916307 660.436121 C 541.417274 658.092859 619.219599 649.318645 619.219599 649.318645 " stroke="#000000" stroke-width="8" stroke-opacity="1" stroke-miterlimit="4"/></g><path stroke-linecap="round" transform="matrix(0.15022, 0, 0, 0.150031, 118.918055, 156.347539)" fill="none" stroke-linejoin="miter" d="M 234.368527 256.067233 C 269.993255 313.451112 277.690276 364.794583 328.73505 422.178462 C 379.779824 479.562341 421.203321 514.789378 491.490649 532.910603 C 561.80398 551.005792 714.938301 570.14243 714.938301 570.14243 " stroke="#ffffff" stroke-width="4.874" stroke-opacity="1" stroke-miterlimit="4"/><path stroke-linecap="butt" transform="matrix(0.15022, 0, 0, 0.150031, 118.918055, 156.347539)" fill-opacity="1" fill="#ffffff" fill-rule="nonzero" stroke-linejoin="round" d="M 285.699339 289.055153 C 287.415567 294.158256 288.507712 295.043488 290.30195 298.01162 C 312.950956 296.866025 315.629311 288.013703 330.555292 287.96163 C 329.775188 283.144926 322.598236 271.428616 316.539432 268.35634 C 300.053244 272.417993 296.854819 275.932886 285.699339 289.055153 Z M 285.699339 289.055153 " stroke="#000000" stroke-width="3" stroke-opacity="1" stroke-miterlimit="4"/><path stroke-linecap="butt" transform="matrix(0.15022, 0, 0, 0.150031, 118.918055, 156.347539)" fill-opacity="1" fill="#ffffff" fill-rule="nonzero" stroke-linejoin="round" d="M 317.163515 346.881648 C 318.853739 351.958715 320.934015 352.765839 322.728253 355.733971 C 345.377259 354.614412 348.159628 346.907684 363.085609 346.855612 C 362.305505 342.038907 355.102549 330.322598 349.043745 327.250321 C 332.583561 331.311975 328.318995 333.759382 317.163515 346.881648 Z M 317.163515 346.881648 " stroke="#000000" stroke-width="3" stroke-opacity="1" stroke-miterlimit="4"/><path stroke-linecap="butt" transform="matrix(0.15022, 0, 0, 0.150031, 118.918055, 156.347539)" fill-opacity="1" fill="#ffffff" fill-rule="nonzero" stroke-linejoin="round" d="M 355.882653 398.615663 C 357.572877 403.69273 356.896787 405.671484 358.665022 408.639616 C 377.231486 394.111392 386.332694 393.460486 398.398295 384.477983 C 397.618191 379.661278 391.143332 370.808955 385.084528 367.736678 C 368.59834 371.798332 367.01213 385.493396 355.882653 398.615663 Z M 355.882653 398.615663 " stroke="#000000" stroke-width="3" stroke-opacity="1" stroke-miterlimit="4"/><path stroke-linecap="butt" transform="matrix(0.15022, 0, 0, 0.150031, 118.918055, 156.347539)" fill-opacity="1" fill="#ffffff" fill-rule="nonzero" stroke-linejoin="round" d="M 400.32255 446.340096 C 402.012774 451.417163 403.130923 452.328431 404.899158 455.296563 C 421.619376 451.625453 432.774857 436.706686 440.575892 432.17638 C 439.769785 427.359675 433.086898 422.516933 427.054098 419.444657 C 410.56791 423.506311 399.984505 438.529223 400.32255 446.340096 Z M 400.32255 446.340096 " stroke="#000000" stroke-width="3" stroke-opacity="1" stroke-miterlimit="4"/><path stroke-linecap="butt" transform="matrix(0.15022, 0, 0, 0.150031, 118.918055, 156.347539)" fill-opacity="1" fill="#ffffff" fill-rule="nonzero" stroke-linejoin="round" d="M 453.499607 481.09848 C 455.189831 486.201583 457.426128 486.670236 462.366784 487.737722 C 477.968854 478.703145 477.994858 467.819996 480.959251 459.071818 C 480.179148 454.28115 468.659619 451.859779 462.626818 448.761466 C 457.400125 461.232827 458.154225 472.142012 453.499607 481.09848 Z M 453.499607 481.09848 " stroke="#000000" stroke-width="3" stroke-opacity="1" stroke-miterlimit="4"/><path stroke-linecap="butt" transform="matrix(0.15022, 0, 0, 0.150031, 118.918055, 156.347539)" fill-opacity="1" fill="#ffffff" fill-rule="nonzero" stroke-linejoin="round" d="M 511.825347 506.561925 C 515.543841 508.722933 519.964427 509.790419 524.827073 509.998709 C 529.091639 497.293023 530.417815 486.826453 530.23579 477.583587 C 527.869476 473.339679 516.349948 469.824787 509.615054 468.991627 C 514.009637 479.328015 513.151523 496.511936 511.825347 506.561925 Z M 511.825347 506.561925 " stroke="#000000" stroke-width="3" stroke-opacity="1" stroke-miterlimit="4"/><path stroke-linecap="butt" transform="matrix(0.15022, 0, 0, 0.150031, 118.918055, 156.347539)" fill-opacity="1" fill="#ffffff" fill-rule="nonzero" stroke-linejoin="round" d="M 572.933457 522.912686 C 576.937988 526.479651 579.356309 527.260738 584.166947 525.7246 C 590.771824 516.013081 587.235354 504.583171 583.438851 499.297814 C 580.34444 495.548595 573.219495 493.752094 566.432594 494.116601 C 567.134687 503.750011 569.579011 512.680442 572.933457 522.912686 Z M 572.933457 522.912686 " stroke="#000000" stroke-width="3" stroke-opacity="1" stroke-miterlimit="4"/><path stroke-linecap="butt" transform="matrix(0.15022, 0, 0, 0.150031, 118.918055, 156.347539)" fill-opacity="1" fill="#ffffff" fill-rule="nonzero" stroke-linejoin="round" d="M 634.509628 536.737931 C 638.514159 540.27886 640.672446 539.575881 645.509088 538.039743 C 651.463878 530.723559 650.579761 526.089107 648.031422 519.059322 C 644.963015 515.284067 632.767397 512.498189 625.980496 512.862696 C 627.176655 518.434452 634.041566 526.609832 634.509628 536.737931 Z M 634.509628 536.737931 " stroke="#000000" stroke-width="3" stroke-opacity="1" stroke-miterlimit="4"/><g clip-path="url(#789d1bf19c)"><path fill="#000000" d="M 213.238281 210.914062 C 213.316406 212.417969 213.492188 213.003906 213.011719 214.015625 C 212.171875 215.785156 210.320312 217.160156 209.535156 217.023438 C 208.300781 216.808594 208.410156 216.003906 207.445312 214.988281 C 206.476562 213.96875 204.921875 211.503906 204.921875 211.503906 Z M 213.238281 210.914062 " fill-opacity="1" fill-rule="nonzero"/></g><g clip-path="url(#d9691645f5)"><path stroke-linecap="butt" transform="matrix(-0.15022, 0, 0, -0.150031, 246.447704, 250.385285)" fill="none" stroke-linejoin="miter" d="M 221.071252 263.086679 C 220.551183 253.062725 219.381028 249.157289 222.579452 242.413902 C 228.170194 230.619484 240.49583 221.454726 245.722523 222.365995 C 253.939614 223.797988 253.211517 229.161454 259.634369 235.930877 C 266.083225 242.726337 276.432599 259.155206 276.432599 259.155206 Z M 221.071252 263.086679 " stroke="#000000" stroke-width="1" stroke-opacity="1" stroke-miterlimit="4"/></g><path stroke-linecap="butt" transform="matrix(-0.15022, 0, 0, -0.150031, 246.447704, 250.385285)" fill-opacity="1" fill="#000000" fill-rule="nonzero" stroke-linejoin="miter" d="M 57.145498 243.793823 C 57.145498 243.793823 63.56835 318.778202 49.292456 418.080432 C 36.0567 510.014406 29.295802 505.223737 27.137516 536.649482 C 25.005233 568.075227 29.295802 619.496807 29.295802 619.496807 C 29.295802 619.496807 350.724458 626.656774 439.292211 621.657815 C 527.859964 616.658856 740.724213 580.208116 740.724213 580.208116 C 740.724213 580.208116 739.294023 553.078351 710.014137 538.081475 C 680.708248 523.0846 623.578667 518.085641 590.008212 505.926716 C 556.437757 493.793826 455.700388 469.502012 403.56347 403.083556 C 351.426551 336.639065 304.77636 258.5043 282.153358 248.063766 C 261.22058 250.901717 217.144731 253.79174 161.419336 252.359747 C 105.719944 250.927753 57.145498 243.793823 57.145498 243.793823 Z M 57.145498 243.793823 " stroke="#000000" stroke-width="1" stroke-opacity="1" stroke-miterlimit="4"/><path stroke-linecap="butt" transform="matrix(-0.15022, 0, 0, -0.150031, 245.803846, 250.278178)" fill-opacity="1" fill="#ffffff" fill-rule="nonzero" stroke-linejoin="miter" d="M 236.417773 407.707087 C 236.417773 447.750828 202.847318 480.218023 161.42382 480.218023 C 120.000323 480.218023 86.429868 447.750828 86.429868 407.707087 C 86.429868 367.689382 120.000323 335.222187 161.42382 335.222187 C 202.847318 335.222187 236.417773 367.689382 236.417773 407.707087 Z M 236.417773 407.707087 " stroke="#d8d8d8" stroke-width="1" stroke-opacity="1" stroke-miterlimit="4"/><path stroke-linecap="butt" transform="matrix(-0.0232646, 0, 0, -0.0225587, 205.158111, 173.314237)" fill="none" stroke-linejoin="miter" d="M 236.490282 407.694086 C 236.490282 447.693895 202.909275 480.247853 161.436732 480.247853 C 119.964188 480.247853 86.383181 447.693895 86.383181 407.694086 C 86.383181 367.694277 119.964188 335.14032 161.436732 335.14032 C 202.909275 335.14032 236.490282 367.694277 236.490282 407.694086 Z M 236.490282 407.694086 " stroke="#ffffff" stroke-width="48.764999" stroke-opacity="1" stroke-miterlimit="4"/><path stroke-linecap="butt" transform="matrix(-0.0232646, 0, 0, -0.0225587, 192.904621, 173.495775)" fill="none" stroke-linejoin="miter" d="M 236.508191 407.776134 C 236.508191 447.775943 202.927185 480.156741 161.454641 480.156741 C 119.982098 480.156741 86.401091 447.775943 86.401091 407.776134 C 86.401091 367.603165 119.982098 335.222367 161.454641 335.222367 C 202.927185 335.222367 236.508191 367.603165 236.508191 407.776134 Z M 236.508191 407.776134 " stroke="#ffffff" stroke-width="48.764999" stroke-opacity="1" stroke-miterlimit="4"/><path stroke-linecap="butt" transform="matrix(-0.022479, -0.0134608, 0.0103427, -0.0185799, 202.509718, 216.109145)" fill="none" stroke-linejoin="miter" d="M 236.482821 407.663434 C 236.524806 447.789043 202.789389 480.218945 161.396386 480.143022 C 120.075932 480.22478 86.412013 447.848662 86.370027 407.723053 C 86.400592 367.755123 120.063459 335.167542 161.456462 335.243464 C 202.849465 335.319386 236.513385 367.695505 236.482821 407.663434 Z M 236.482821 407.663434 " stroke="#ffffff" stroke-width="48.766998" stroke-opacity="1" stroke-miterlimit="4"/><path stroke-linecap="butt" transform="matrix(-0.022479, -0.0134608, 0.0103427, -0.0185799, 197.681636, 207.375836)" fill="none" stroke-linejoin="miter" d="M 236.50405 407.705426 C 236.473486 447.673355 202.810619 480.260936 161.417616 480.185014 C 120.024613 480.109092 86.360693 447.732974 86.391257 407.765044 C 86.349272 367.639435 120.084689 335.209534 161.477692 335.285456 C 202.798146 335.203698 236.462065 367.579816 236.50405 407.705426 Z M 236.50405 407.705426 " stroke="#ffffff" stroke-width="48.766998" stroke-opacity="1" stroke-miterlimit="4"/><path stroke-linecap="butt" transform="matrix(-0.022479, -0.0134608, 0.0103427, -0.0185799, 192.317277, 199.445188)" fill="none" stroke-linejoin="miter" d="M 236.450226 407.69271 C 236.492211 447.818319 202.887125 480.153799 161.363792 480.172298 C 120.043338 480.254056 86.509748 447.783516 86.467763 407.657907 C 86.498327 367.689978 120.030864 335.196818 161.423867 335.27274 C 202.9472 335.254241 236.48079 367.72478 236.450226 407.69271 Z M 236.450226 407.69271 " stroke="#ffffff" stroke-width="48.766998" stroke-opacity="1" stroke-miterlimit="4"/><path stroke-linecap="butt" transform="matrix(-0.0223949, -0.0138359, 0.0103036, -0.019096, 185.23738, 192.69677)" fill="none" stroke-linejoin="miter" d="M 236.381306 407.708923 C 236.480173 447.730809 202.936309 480.217175 161.425706 480.223304 C 120.045921 480.134651 86.496333 447.780032 86.397466 407.758146 C 86.429417 367.641476 119.973281 335.155111 161.483884 335.148981 C 202.863669 335.237635 236.413257 367.592253 236.381306 407.708923 Z M 236.381306 407.708923 " stroke="#ffffff" stroke-width="48.766998" stroke-opacity="1" stroke-miterlimit="4"/><path stroke-linecap="butt" transform="matrix(-0.0244604, -0.00974153, 0.00682752, -0.0205933, 178.789915, 187.619724)" fill="none" stroke-linejoin="miter" d="M 236.460874 407.625883 C 236.501317 447.820094 202.904607 480.215459 161.408983 480.307097 C 120.007658 480.164442 86.356352 447.713166 86.36268 407.686516 C 86.369008 367.659867 119.965717 335.264502 161.461342 335.172864 C 202.815896 335.147958 236.467201 367.599234 236.460874 407.625883 Z M 236.460874 407.625883 " stroke="#ffffff" stroke-width="48.766998" stroke-opacity="1" stroke-miterlimit="4"/><path stroke-linecap="butt" transform="matrix(-0.0238971, -0.00791565, 0.00666979, -0.016733, 169.793211, 182.182591)" fill="none" stroke-linejoin="miter" d="M 236.412503 407.754551 C 236.435722 447.662845 202.834765 480.132671 161.467708 480.09216 C 120.013812 480.326175 86.382572 447.678872 86.503749 407.70227 C 86.422974 367.587757 120.02393 335.117931 161.390987 335.158442 C 202.90244 335.130645 236.476124 367.57173 236.412503 407.754551 Z M 236.412503 407.754551 " stroke="#ffffff" stroke-width="48.766998" stroke-opacity="1" stroke-miterlimit="4"/><path stroke-linecap="butt" transform="matrix(-0.0238971, -0.00791565, 0.00666979, -0.016733, 160.779985, 179.792595)" fill="none" stroke-linejoin="miter" d="M 236.510448 407.745769 C 236.389271 447.722371 202.788315 480.192196 161.421258 480.151685 C 120.054201 480.111175 86.480518 447.67009 86.457299 407.761795 C 86.376523 367.647282 119.977479 335.177457 161.488933 335.14966 C 202.85599 335.190171 236.429673 367.631256 236.510448 407.745769 Z M 236.510448 407.745769 " stroke="#ffffff" stroke-width="48.766998" stroke-opacity="1" stroke-miterlimit="4"/><path stroke-linecap="butt" transform="matrix(-0.0249111, -0.00332319, 0.00365937, -0.0160563, 152.857377, 176.731952)" fill="none" stroke-linejoin="miter" d="M 236.391736 407.810075 C 236.449096 447.696763 202.80648 480.204607 161.416763 480.256128 C 120.027046 480.30765 86.407037 447.854014 86.467175 407.699724 C 86.375132 367.57693 120.052431 335.305191 161.442148 335.25367 C 202.831865 335.202149 236.451874 367.655785 236.391736 407.810075 Z M 236.391736 407.810075 " stroke="#ffffff" stroke-width="48.766998" stroke-opacity="1" stroke-miterlimit="4"/><path stroke-linecap="butt" transform="matrix(-0.15022, 0, 0, -0.150031, 246.447704, 250.385285)" fill-opacity="1" fill="#ffffff" fill-rule="nonzero" stroke-linejoin="miter" d="M 806.48694 556.124592 C 800.064087 543.965666 791.144904 534.384329 778.585237 531.286016 C 752.555783 524.8811 702.49914 529.333298 687.157104 531.103762 C 671.789065 532.900263 719.115345 569.871728 737.863833 580.572624 C 750.969572 575.183122 798.373863 566.851524 806.48694 556.124592 Z M 806.48694 556.124592 " stroke="#000000" stroke-width="5" stroke-opacity="1" stroke-miterlimit="4"/><g clip-path="url(#a5e8333ffc)"><path fill="#ffffff" d="M 243.28125 159.972656 C 243.28125 159.972656 213.03125 158.761719 191.535156 159.066406 C 170.226562 159.367188 136.582031 162.8125 125.199219 168.15625 C 124.851562 167.128906 123.609375 166.160156 123.179688 164.96875 C 122.667969 163.558594 121.234375 157.890625 122.09375 155.75 C 122.953125 153.605469 137.003906 150.140625 147.730469 148.425781 C 158.460938 146.710938 172.851562 146.699219 184.226562 146.699219 C 195.601562 146.699219 220.277344 145.363281 229.722656 145.664062 C 239.179688 145.96875 242.027344 146.761719 243.859375 148.238281 C 244.144531 150.890625 243.28125 159.972656 243.28125 159.972656 Z M 243.28125 159.972656 " fill-opacity="1" fill-rule="nonzero"/></g><g clip-path="url(#8e700fbf2c)"><path stroke-linecap="butt" transform="matrix(-0.15022, 0, 0, -0.150031, 246.447704, 250.385285)" fill="none" stroke-linejoin="round" d="M 21.078712 602.625321 C 21.078712 602.625321 222.449435 610.696557 365.546425 608.66573 C 507.395249 606.660939 731.36297 583.696973 807.137026 548.079393 C 809.451333 554.926925 817.72043 561.383913 820.58081 569.324967 C 823.987262 578.724051 833.530528 616.502639 827.809769 630.7705 C 822.08901 645.064397 728.554598 668.158545 657.149122 679.588455 C 585.717642 691.018366 489.92093 691.096475 414.198881 691.096475 C 338.476832 691.096475 174.213034 700.00087 111.33669 697.996079 C 48.382335 695.965252 29.42582 690.679895 17.230201 680.838195 C 15.331949 663.159586 21.078712 602.625321 21.078712 602.625321 Z M 21.078712 602.625321 " stroke="#000000" stroke-width="5" stroke-opacity="1" stroke-miterlimit="4"/></g><g clip-path="url(#d3a30cd911)"><path stroke-linecap="butt" transform="matrix(-0.15022, 0, 0, -0.150031, 246.447704, 250.385285)" fill="none" stroke-linejoin="miter" d="M 605.714296 590.570541 C 613.20329 620.9288 621.784429 662.013991 623.916712 684.873813 " stroke="#000000" stroke-width="6" stroke-opacity="1" stroke-miterlimit="4"/></g><g clip-path="url(#a8822975a9)"><path stroke-linecap="butt" transform="matrix(-0.15022, 0, 0, -0.150031, 246.447704, 250.385285)" fill="none" stroke-linejoin="miter" d="M 20.714664 614.497848 L 35.354606 616.997328 L 34.652513 689.143756 " stroke="#000000" stroke-width="5" stroke-opacity="1" stroke-miterlimit="4"/></g><g clip-path="url(#8cb7e4ee43)"><path stroke-linecap="butt" transform="matrix(-0.15022, 0, 0, -0.150031, 246.447704, 250.385285)" fill="none" stroke-linejoin="miter" d="M 34.652513 660.581998 C 34.652513 660.581998 51.008684 666.986914 77.272169 667.507639 C 103.535654 668.002327 235.37315 664.487434 275.756509 664.461398 C 311.641271 664.435362 440.410359 662.586789 488.906795 660.425781 C 541.433766 658.082519 619.210087 649.308305 619.210087 649.308305 " stroke="#000000" stroke-width="8" stroke-opacity="1" stroke-miterlimit="4"/></g><path stroke-linecap="round" transform="matrix(-0.15022, 0, 0, -0.150031, 246.447704, 250.385285)" fill="none" stroke-linejoin="miter" d="M 234.359015 256.082929 C 269.983743 313.440772 277.706768 364.784243 328.751542 422.168122 C 379.770312 479.552002 421.193809 514.779038 491.50714 532.900263 C 561.794468 551.021488 714.928789 570.158127 714.928789 570.158127 " stroke="#ffffff" stroke-width="4.874" stroke-opacity="1" stroke-miterlimit="4"/><path stroke-linecap="butt" transform="matrix(-0.15022, 0, 0, -0.150031, 246.447704, 250.385285)" fill-opacity="1" fill="#ffffff" fill-rule="nonzero" stroke-linejoin="round" d="M 285.715831 289.070849 C 287.406055 294.147916 288.524203 295.033149 290.292438 298.00128 C 312.941444 296.881722 315.619799 288.003363 330.571783 287.951291 C 329.765676 283.160622 322.588724 271.418276 316.52992 268.346 C 300.043732 272.407654 296.871311 275.948583 285.715831 289.070849 Z M 285.715831 289.070849 " stroke="#000000" stroke-width="3" stroke-opacity="1" stroke-miterlimit="4"/><path stroke-linecap="butt" transform="matrix(-0.15022, 0, 0, -0.150031, 246.447704, 250.385285)" fill-opacity="1" fill="#ffffff" fill-rule="nonzero" stroke-linejoin="round" d="M 317.154003 346.871308 C 318.844227 351.974412 320.950506 352.781535 322.718741 355.749667 C 345.39375 354.604072 348.150116 346.897344 363.076097 346.845272 C 362.295993 342.054603 355.119041 330.312258 349.060237 327.239981 C 332.574049 331.301635 328.309483 333.749042 317.154003 346.871308 Z M 317.154003 346.871308 " stroke="#000000" stroke-width="3" stroke-opacity="1" stroke-miterlimit="4"/><path stroke-linecap="butt" transform="matrix(-0.15022, 0, 0, -0.150031, 246.447704, 250.385285)" fill-opacity="1" fill="#ffffff" fill-rule="nonzero" stroke-linejoin="round" d="M 355.873141 398.605323 C 357.563365 403.708426 356.887275 405.661144 358.65551 408.629276 C 377.221974 394.101053 386.323182 393.450147 398.414786 384.467643 C 397.608679 379.676974 391.13382 370.798615 385.075016 367.726339 C 368.614832 371.787992 367.028621 385.483056 355.873141 398.605323 Z M 355.873141 398.605323 " stroke="#000000" stroke-width="3" stroke-opacity="1" stroke-miterlimit="4"/><path stroke-linecap="butt" transform="matrix(-0.15022, 0, 0, -0.150031, 246.447704, 250.385285)" fill-opacity="1" fill="#ffffff" fill-rule="nonzero" stroke-linejoin="round" d="M 400.313038 446.329756 C 402.029266 451.432859 403.121411 452.318092 404.915649 455.286223 C 421.635868 451.641149 432.765345 436.696346 440.56638 432.16604 C 439.786277 427.349335 433.10339 422.53263 427.044586 419.460353 C 410.558398 423.522007 399.974993 438.518883 400.313038 446.329756 Z M 400.313038 446.329756 " stroke="#000000" stroke-width="3" stroke-opacity="1" stroke-miterlimit="4"/><path stroke-linecap="butt" transform="matrix(-0.15022, 0, 0, -0.150031, 246.447704, 250.385285)" fill-opacity="1" fill="#ffffff" fill-rule="nonzero" stroke-linejoin="round" d="M 453.490095 481.114176 C 455.180319 486.191244 457.416616 486.659896 462.357272 487.753418 C 477.985346 478.692806 477.985346 467.809656 480.975743 459.087515 C 480.169636 454.27081 468.67611 451.849439 462.617306 448.777163 C 457.390613 461.222487 458.144713 472.131672 453.490095 481.114176 Z M 453.490095 481.114176 " stroke="#000000" stroke-width="3" stroke-opacity="1" stroke-miterlimit="4"/><path stroke-linecap="butt" transform="matrix(-0.15022, 0, 0, -0.150031, 246.447704, 250.385285)" fill-opacity="1" fill="#ffffff" fill-rule="nonzero" stroke-linejoin="round" d="M 511.841839 506.551585 C 515.534329 508.73863 519.954915 509.78008 524.843564 509.988369 C 529.082127 497.282683 530.434306 486.816113 530.252282 477.573247 C 527.859964 473.32934 516.340436 469.814447 509.605542 469.007323 C 514.000125 479.343712 513.142011 496.527632 511.841839 506.551585 Z M 511.841839 506.551585 " stroke="#000000" stroke-width="3" stroke-opacity="1" stroke-miterlimit="4"/><path stroke-linecap="butt" transform="matrix(-0.15022, 0, 0, -0.150031, 246.447704, 250.385285)" fill-opacity="1" fill="#ffffff" fill-rule="nonzero" stroke-linejoin="round" d="M 572.923945 522.902346 C 576.954479 526.469311 579.3728 527.276435 584.183439 525.740296 C 590.788315 516.028778 587.251846 504.572831 583.429339 499.31351 C 580.360932 495.538255 573.209983 493.76779 566.449085 494.132298 C 567.125175 503.739671 569.569499 512.670102 572.923945 522.902346 Z M 572.923945 522.902346 " stroke="#000000" stroke-width="3" stroke-opacity="1" stroke-miterlimit="4"/><path stroke-linecap="butt" transform="matrix(-0.15022, 0, 0, -0.150031, 246.447704, 250.385285)" fill-opacity="1" fill="#ffffff" fill-rule="nonzero" stroke-linejoin="round" d="M 634.500116 536.727591 C 638.504647 540.294556 640.688937 539.565541 645.499576 538.029403 C 651.480369 530.739255 650.596252 526.104804 648.047914 519.075018 C 644.953503 515.299763 632.757885 512.513885 625.996988 512.878392 C 627.167143 518.450148 634.058057 526.625529 634.500116 536.727591 Z M 634.500116 536.727591 " stroke="#000000" stroke-width="3" stroke-opacity="1" stroke-miterlimit="4"/><g fill="#000000" fill-opacity="1"><g transform="translate(73.481396, 210.666873)"><g><path d="M -3.6875 -20.609375 C -2.132812 -20.296875 -0.835938 -19.617188 0.203125 -18.578125 C 1.242188 -17.546875 1.941406 -16.222656 2.296875 -14.609375 C 2.660156 -12.992188 2.640625 -11.1875 2.234375 -9.1875 C 1.890625 -7.519531 1.484375 -6.144531 1.015625 -5.0625 C 0.554688 -3.988281 -0.0820312 -2.898438 -0.90625 -1.796875 L -6.9375 -3.03125 C -6.007812 -4.175781 -5.21875 -5.40625 -4.5625 -6.71875 C -3.90625 -8.03125 -3.457031 -9.269531 -3.21875 -10.4375 C -3.007812 -11.445312 -3.03125 -12.21875 -3.28125 -12.75 C -3.539062 -13.289062 -3.945312 -13.617188 -4.5 -13.734375 C -4.84375 -13.804688 -5.160156 -13.769531 -5.453125 -13.625 C -5.742188 -13.488281 -6.0625 -13.238281 -6.40625 -12.875 C -6.757812 -12.519531 -7.523438 -11.523438 -8.703125 -9.890625 C -9.773438 -8.410156 -10.738281 -7.332031 -11.59375 -6.65625 C -12.457031 -5.988281 -13.382812 -5.550781 -14.375 -5.34375 C -15.363281 -5.132812 -16.472656 -5.15625 -17.703125 -5.40625 C -19.992188 -5.882812 -21.613281 -7.085938 -22.5625 -9.015625 C -23.507812 -10.953125 -23.679688 -13.382812 -23.078125 -16.3125 C -22.546875 -18.90625 -21.40625 -21.429688 -19.65625 -23.890625 L -14.890625 -20.71875 C -16.441406 -18.601562 -17.390625 -16.695312 -17.734375 -15 C -17.910156 -14.125 -17.882812 -13.457031 -17.65625 -13 C -17.425781 -12.539062 -17.085938 -12.265625 -16.640625 -12.171875 C -16.148438 -12.078125 -15.65625 -12.242188 -15.15625 -12.671875 C -14.664062 -13.097656 -13.675781 -14.320312 -12.1875 -16.34375 C -10.769531 -18.300781 -9.421875 -19.585938 -8.140625 -20.203125 C -6.859375 -20.828125 -5.375 -20.960938 -3.6875 -20.609375 Z M -3.6875 -20.609375 "/></g></g></g><g fill="#000000" fill-opacity="1"><g transform="translate(78.683269, 186.012942)"><g><path d="M 10.96875 -22.046875 L 7.890625 -15.84375 L -1.421875 -20.484375 L -5 -13.3125 L 4.3125 -8.671875 L 1.234375 -2.46875 L -21.609375 -13.828125 L -18.53125 -20.03125 L -10.0625 -15.828125 L -6.484375 -23 L -14.953125 -27.203125 L -11.875 -33.40625 Z M 10.96875 -22.046875 "/></g></g></g><g fill="#000000" fill-opacity="1"><g transform="translate(93.191355, 158.026741)"><g><path d="M 8.875 -28.1875 C 12.007812 -25.25 13.671875 -22.242188 13.859375 -19.171875 C 14.046875 -16.109375 12.753906 -13.101562 9.984375 -10.15625 C 7.242188 -7.226562 4.320312 -5.753906 1.21875 -5.734375 C -1.875 -5.710938 -4.988281 -7.164062 -8.125 -10.09375 C -11.226562 -13 -12.867188 -15.992188 -13.046875 -19.078125 C -13.222656 -22.160156 -11.925781 -25.179688 -9.15625 -28.140625 C -6.375 -31.109375 -3.457031 -32.59375 -0.40625 -32.59375 C 2.644531 -32.601562 5.738281 -31.132812 8.875 -28.1875 Z M -3.140625 -15.375 C 0.460938 -12 3.441406 -11.566406 5.796875 -14.078125 C 6.984375 -15.335938 7.425781 -16.6875 7.125 -18.125 C 6.832031 -19.5625 5.757812 -21.148438 3.90625 -22.890625 C 2.050781 -24.640625 0.390625 -25.613281 -1.078125 -25.8125 C -2.546875 -26.019531 -3.863281 -25.503906 -5.03125 -24.265625 C -7.394531 -21.742188 -6.765625 -18.78125 -3.140625 -15.375 Z M -3.140625 -15.375 "/></g></g></g><g fill="#000000" fill-opacity="1"><g transform="translate(116.544428, 134.804546)"><g><path d="M 15.1875 -9.46875 L 2.34375 -1.46875 L -11.15625 -23.125 L 1.6875 -31.125 L 4.609375 -26.421875 L -2.390625 -22.0625 L -0.265625 -18.65625 L 6.21875 -22.703125 L 9.140625 -18.015625 L 2.65625 -13.96875 L 5.203125 -9.875 L 12.203125 -14.234375 Z M 15.1875 -9.46875 "/></g></g></g><g fill="#000000" fill-opacity="1"><g transform="translate(138.336422, 122.357391)"><g/></g></g><g fill="#000000" fill-opacity="1"><g transform="translate(151.921635, 116.83377)"><g><path d="M 10.3125 -22.421875 C 8.6875 -22.128906 7.539062 -21.238281 6.875 -19.75 C 6.21875 -18.257812 6.097656 -16.351562 6.515625 -14.03125 C 7.390625 -9.207031 9.660156 -7.128906 13.328125 -7.796875 C 14.441406 -7.992188 15.488281 -8.34375 16.46875 -8.84375 C 17.457031 -9.34375 18.445312 -9.898438 19.4375 -10.515625 L 20.46875 -4.78125 C 18.53125 -3.46875 16.238281 -2.578125 13.59375 -2.109375 C 9.8125 -1.421875 6.707031 -1.992188 4.28125 -3.828125 C 1.863281 -5.671875 0.28125 -8.664062 -0.46875 -12.8125 C -0.945312 -15.414062 -0.875 -17.789062 -0.25 -19.9375 C 0.375 -22.082031 1.507812 -23.847656 3.15625 -25.234375 C 4.800781 -26.628906 6.867188 -27.554688 9.359375 -28.015625 C 12.066406 -28.503906 14.765625 -28.378906 17.453125 -27.640625 L 16.359375 -21.921875 C 15.347656 -22.191406 14.351562 -22.390625 13.375 -22.515625 C 12.394531 -22.640625 11.375 -22.609375 10.3125 -22.421875 Z M 10.3125 -22.421875 "/></g></g></g><g fill="#000000" fill-opacity="1"><g transform="translate(179.55651, 112.633158)"><g><path d="M 17.875 1.0625 L 2.765625 0.171875 L 4.28125 -25.296875 L 19.390625 -24.40625 L 19.0625 -18.890625 L 10.828125 -19.375 L 10.59375 -15.359375 L 18.21875 -14.90625 L 17.890625 -9.390625 L 10.265625 -9.84375 L 9.96875 -5.03125 L 18.203125 -4.546875 Z M 17.875 1.0625 "/></g></g></g><g fill="#000000" fill-opacity="1"><g transform="translate(203.662687, 113.998167)"><g><path d="M 25.640625 8.640625 L 17.078125 5.75 L 13.984375 -14.265625 L 13.828125 -14.328125 C 13.140625 -11.566406 12.554688 -9.476562 12.078125 -8.0625 L 8.40625 2.828125 L 2.625 0.890625 L 10.78125 -23.28125 L 19.3125 -20.40625 L 22.421875 -0.65625 L 22.53125 -0.609375 C 23.195312 -3.109375 23.78125 -5.097656 24.28125 -6.578125 L 27.96875 -17.5 L 33.796875 -15.53125 Z M 25.640625 8.640625 "/></g></g></g><g fill="#000000" fill-opacity="1"><g transform="translate(235.594509, 126.003353)"><g><path d="M 11.59375 7.875 L 5.890625 4 L 17.0625 -12.4375 L 11.90625 -15.9375 L 15.0625 -20.609375 L 31.0625 -9.734375 L 27.90625 -5.0625 L 22.765625 -8.5625 Z M 11.59375 7.875 "/></g></g></g><g fill="#000000" fill-opacity="1"><g transform="translate(256.706618, 140.814881)"><g><path d="M 13.34375 1.0625 L 6.40625 7.21875 L 1.828125 2.0625 L 20.921875 -14.859375 L 26.46875 -8.59375 C 31.070312 -3.414062 31.492188 0.832031 27.734375 4.15625 C 25.523438 6.125 22.859375 6.566406 19.734375 5.484375 L 16.34375 18.421875 L 11.15625 12.578125 L 14.5 2.375 Z M 17.234375 -2.375 L 18.078125 -1.40625 C 19.679688 0.394531 21.28125 0.585938 22.875 -0.828125 C 24.1875 -1.992188 24.0625 -3.460938 22.5 -5.234375 L 21.59375 -6.25 Z M 17.234375 -2.375 "/></g></g></g><g fill="#000000" fill-opacity="1"><g transform="translate(275.330378, 162.537369)"><g><path d="M 8.125 16.53125 L 11.875 13.28125 L 8.21875 5.859375 L 3.34375 6.796875 L 0 0 L 26.671875 -3.84375 L 30.734375 4.421875 L 11.453125 23.28125 Z M 16.296875 9.515625 L 19.578125 6.671875 C 20.316406 6.023438 21.265625 5.210938 22.421875 4.234375 C 23.578125 3.253906 24.414062 2.570312 24.9375 2.1875 C 24.363281 2.351562 23.394531 2.597656 22.03125 2.921875 C 20.675781 3.253906 17.96875 3.820312 13.90625 4.625 Z M 16.296875 9.515625 "/></g></g></g><g fill="#000000" fill-opacity="1"><g transform="translate(287.971777, 190.288721)"><g><path d="M 0.5625 2.703125 L 25.5625 -2.4375 L 26.9375 4.3125 L 7.390625 8.328125 L 9.375 17.953125 L 3.921875 19.078125 Z M 0.5625 2.703125 "/></g></g></g><g fill="#000000" fill-opacity="1"><g transform="translate(92.055416, 294.509277)"><g><path d="M 12.359375 -4.796875 C 12.359375 -3.234375 11.796875 -2.003906 10.671875 -1.109375 C 9.554688 -0.210938 8 0.234375 6 0.234375 C 4.15625 0.234375 2.523438 -0.109375 1.109375 -0.796875 L 1.109375 -4.203125 C 2.273438 -3.679688 3.257812 -3.3125 4.0625 -3.09375 C 4.875 -2.882812 5.613281 -2.78125 6.28125 -2.78125 C 7.082031 -2.78125 7.695312 -2.929688 8.125 -3.234375 C 8.550781 -3.546875 8.765625 -4.003906 8.765625 -4.609375 C 8.765625 -4.953125 8.671875 -5.253906 8.484375 -5.515625 C 8.296875 -5.773438 8.019531 -6.023438 7.65625 -6.265625 C 7.289062 -6.515625 6.546875 -6.910156 5.421875 -7.453125 C 4.359375 -7.941406 3.5625 -8.414062 3.03125 -8.875 C 2.507812 -9.332031 2.09375 -9.863281 1.78125 -10.46875 C 1.46875 -11.070312 1.3125 -11.78125 1.3125 -12.59375 C 1.3125 -14.125 1.828125 -15.320312 2.859375 -16.1875 C 3.898438 -17.0625 5.332031 -17.5 7.15625 -17.5 C 8.050781 -17.5 8.90625 -17.390625 9.71875 -17.171875 C 10.53125 -16.960938 11.382812 -16.664062 12.28125 -16.28125 L 11.09375 -13.4375 C 10.175781 -13.820312 9.414062 -14.085938 8.8125 -14.234375 C 8.207031 -14.378906 7.613281 -14.453125 7.03125 -14.453125 C 6.34375 -14.453125 5.8125 -14.289062 5.4375 -13.96875 C 5.070312 -13.644531 4.890625 -13.226562 4.890625 -12.71875 C 4.890625 -12.394531 4.960938 -12.109375 5.109375 -11.859375 C 5.253906 -11.617188 5.488281 -11.382812 5.8125 -11.15625 C 6.144531 -10.9375 6.921875 -10.539062 8.140625 -9.96875 C 9.753906 -9.195312 10.859375 -8.421875 11.453125 -7.640625 C 12.054688 -6.867188 12.359375 -5.921875 12.359375 -4.796875 Z M 12.359375 -4.796875 "/></g></g></g><g fill="#000000" fill-opacity="1"><g transform="translate(108.965114, 294.509277)"><g><path d="M 8.828125 0 L 5.171875 0 L 5.171875 -14.203125 L 0.484375 -14.203125 L 0.484375 -17.25 L 13.515625 -17.25 L 13.515625 -14.203125 L 8.828125 -14.203125 Z M 8.828125 0 "/></g></g></g><g fill="#000000" fill-opacity="1"><g transform="translate(126.559145, 294.509277)"><g><path d="M 5.828125 -9.59375 L 7.015625 -9.59375 C 8.171875 -9.59375 9.019531 -9.785156 9.5625 -10.171875 C 10.113281 -10.554688 10.390625 -11.160156 10.390625 -11.984375 C 10.390625 -12.804688 10.109375 -13.390625 9.546875 -13.734375 C 8.984375 -14.078125 8.113281 -14.25 6.9375 -14.25 L 5.828125 -14.25 Z M 5.828125 -6.625 L 5.828125 0 L 2.171875 0 L 2.171875 -17.25 L 7.203125 -17.25 C 9.546875 -17.25 11.28125 -16.820312 12.40625 -15.96875 C 13.53125 -15.113281 14.09375 -13.820312 14.09375 -12.09375 C 14.09375 -11.070312 13.8125 -10.164062 13.25 -9.375 C 12.695312 -8.582031 11.90625 -7.960938 10.875 -7.515625 C 13.476562 -3.640625 15.171875 -1.132812 15.953125 0 L 11.890625 0 L 7.78125 -6.625 Z M 5.828125 -6.625 "/></g></g></g><g fill="#000000" fill-opacity="1"><g transform="translate(146.111786, 294.509277)"><g><path d="M 12.109375 0 L 2.171875 0 L 2.171875 -17.25 L 12.109375 -17.25 L 12.109375 -14.25 L 5.828125 -14.25 L 5.828125 -10.46875 L 11.671875 -10.46875 L 11.671875 -7.46875 L 5.828125 -7.46875 L 5.828125 -3.015625 L 12.109375 -3.015625 Z M 12.109375 0 "/></g></g></g><g fill="#000000" fill-opacity="1"><g transform="translate(163.245662, 294.509277)"><g><path d="M 12.109375 0 L 2.171875 0 L 2.171875 -17.25 L 12.109375 -17.25 L 12.109375 -14.25 L 5.828125 -14.25 L 5.828125 -10.46875 L 11.671875 -10.46875 L 11.671875 -7.46875 L 5.828125 -7.46875 L 5.828125 -3.015625 L 12.109375 -3.015625 Z M 12.109375 0 "/></g></g></g><g fill="#000000" fill-opacity="1"><g transform="translate(180.379538, 294.509277)"><g><path d="M 8.828125 0 L 5.171875 0 L 5.171875 -14.203125 L 0.484375 -14.203125 L 0.484375 -17.25 L 13.515625 -17.25 L 13.515625 -14.203125 L 8.828125 -14.203125 Z M 8.828125 0 "/></g></g></g><g fill="#000000" fill-opacity="1"><g transform="translate(197.973569, 294.509277)"><g/></g></g><g fill="#000000" fill-opacity="1"><g transform="translate(207.851147, 294.509277)"><g><path d="M 18.984375 0 L 14.8125 0 L 12.46875 -9.0625 C 12.382812 -9.382812 12.238281 -10.050781 12.03125 -11.0625 C 11.820312 -12.070312 11.703125 -12.75 11.671875 -13.09375 C 11.628906 -12.675781 11.507812 -11.992188 11.3125 -11.046875 C 11.125 -10.109375 10.976562 -9.441406 10.875 -9.046875 L 8.5625 0 L 4.40625 0 L 0 -17.25 L 3.59375 -17.25 L 5.8125 -7.84375 C 6.195312 -6.101562 6.472656 -4.59375 6.640625 -3.3125 C 6.691406 -3.757812 6.800781 -4.453125 6.96875 -5.390625 C 7.132812 -6.335938 7.296875 -7.070312 7.453125 -7.59375 L 9.96875 -17.25 L 13.421875 -17.25 L 15.9375 -7.59375 C 16.039062 -7.15625 16.175781 -6.488281 16.34375 -5.59375 C 16.507812 -4.707031 16.632812 -3.945312 16.71875 -3.3125 C 16.800781 -3.925781 16.925781 -4.691406 17.09375 -5.609375 C 17.269531 -6.523438 17.429688 -7.269531 17.578125 -7.84375 L 19.765625 -17.25 L 23.375 -17.25 Z M 18.984375 0 "/></g></g></g><g fill="#000000" fill-opacity="1"><g transform="translate(234.813471, 294.509277)"><g><path d="M 12.109375 0 L 2.171875 0 L 2.171875 -17.25 L 12.109375 -17.25 L 12.109375 -14.25 L 5.828125 -14.25 L 5.828125 -10.46875 L 11.671875 -10.46875 L 11.671875 -7.46875 L 5.828125 -7.46875 L 5.828125 -3.015625 L 12.109375 -3.015625 Z M 12.109375 0 "/></g></g></g><g fill="#000000" fill-opacity="1"><g transform="translate(251.947347, 294.509277)"><g><path d="M 12.734375 0 L 11.484375 -4.109375 L 5.1875 -4.109375 L 3.9375 0 L 0 0 L 6.09375 -17.328125 L 10.5625 -17.328125 L 16.671875 0 Z M 10.609375 -7.171875 C 9.453125 -10.898438 8.800781 -13.003906 8.65625 -13.484375 C 8.507812 -13.972656 8.40625 -14.359375 8.34375 -14.640625 C 8.082031 -13.640625 7.335938 -11.148438 6.109375 -7.171875 Z M 10.609375 -7.171875 "/></g></g></g><g fill="#000000" fill-opacity="1"><g transform="translate(272.219719, 294.509277)"><g><path d="M 5.828125 -9.59375 L 7.015625 -9.59375 C 8.171875 -9.59375 9.019531 -9.785156 9.5625 -10.171875 C 10.113281 -10.554688 10.390625 -11.160156 10.390625 -11.984375 C 10.390625 -12.804688 10.109375 -13.390625 9.546875 -13.734375 C 8.984375 -14.078125 8.113281 -14.25 6.9375 -14.25 L 5.828125 -14.25 Z M 5.828125 -6.625 L 5.828125 0 L 2.171875 0 L 2.171875 -17.25 L 7.203125 -17.25 C 9.546875 -17.25 11.28125 -16.820312 12.40625 -15.96875 C 13.53125 -15.113281 14.09375 -13.820312 14.09375 -12.09375 C 14.09375 -11.070312 13.8125 -10.164062 13.25 -9.375 C 12.695312 -8.582031 11.90625 -7.960938 10.875 -7.515625 C 13.476562 -3.640625 15.171875 -1.132812 15.953125 0 L 11.890625 0 L 7.78125 -6.625 Z M 5.828125 -6.625 "/></g></g></g></svg>