<svg xmlns="http://www.w3.org/2000/svg" xmlns:xlink="http://www.w3.org/1999/xlink" width="500" zoomAndPan="magnify" viewBox="0 0 375 374.999991" height="500" preserveAspectRatio="xMidYMid meet" version="1.0"><defs><clipPath id="529e8fd038"><path d="M 35.007812 80 L 333 80 L 333 126 L 35.007812 126 Z M 35.007812 80 " clip-rule="nonzero"/></clipPath><clipPath id="9274a89c12"><path d="M 35.007812 165 L 333 165 L 333 211 L 35.007812 211 Z M 35.007812 165 " clip-rule="nonzero"/></clipPath><clipPath id="4c116bbef7"><path d="M 35.007812 250 L 333 250 L 333 295.613281 L 35.007812 295.613281 Z M 35.007812 250 " clip-rule="nonzero"/></clipPath></defs><rect x="-37.5" width="450" fill="#ffffff" y="-37.499999" height="449.999989" fill-opacity="1"/><rect x="-37.5" width="450" fill="#ffffff" y="-37.499999" height="449.999989" fill-opacity="1"/><g clip-path="url(#529e8fd038)"><path fill="#020203" d="M 310.167969 125.324219 L 57.785156 125.324219 C 45.363281 125.324219 35.292969 115.253906 35.292969 102.824219 C 35.109375 88.160156 48.996094 79.671875 57.863281 80.328125 C 63.328125 80.339844 310 80.3125 310.539062 80.328125 C 340.027344 81.917969 339.855469 124.144531 310.167969 125.324219 Z M 310.167969 125.324219 " fill-opacity="1" fill-rule="nonzero"/></g><g clip-path="url(#9274a89c12)"><path fill="#020203" d="M 310.167969 210.5 L 57.785156 210.5 C 45.363281 210.5 35.292969 200.425781 35.292969 188 C 35.109375 173.335938 48.996094 164.847656 57.863281 165.5 C 63.328125 165.515625 310 165.488281 310.539062 165.503906 C 340.027344 167.09375 339.855469 209.320312 310.167969 210.5 Z M 310.167969 210.5 " fill-opacity="1" fill-rule="nonzero"/></g><g clip-path="url(#4c116bbef7)"><path fill="#020203" d="M 310.167969 295.675781 L 57.785156 295.675781 C 45.363281 295.675781 35.292969 285.601562 35.292969 273.175781 C 35.109375 258.511719 48.996094 250.023438 57.863281 250.675781 C 63.328125 250.691406 310 250.660156 310.539062 250.679688 C 340.027344 252.265625 339.855469 294.496094 310.167969 295.675781 Z M 310.167969 295.675781 " fill-opacity="1" fill-rule="nonzero"/></g></svg>